<svg width="333" height="221" viewBox="0 0 333 221" fill="none" xmlns="http://www.w3.org/2000/svg">
<mask id="path-1-inside-1_1187_1797" fill="white">
<path d="M39 54C39 45.7157 45.7157 39 54 39H290C298.284 39 305 45.7157 305 54V178C305 186.284 298.284 193 290 193H54C45.7157 193 39 186.284 39 178V54Z"/>
</mask>
<path d="M24 54C24 37.4315 37.4315 24 54 24H275C291.568 24 305 37.4315 305 54C305 54 298.284 54 290 54H54H24ZM305 193H39H305ZM54 193C37.4315 193 24 179.568 24 163V54C24 37.4315 37.4315 24 54 24V54V178C54 186.284 54 193 54 193ZM305 39V193V39Z" fill="url(#paint0_linear_1187_1797)" mask="url(#path-1-inside-1_1187_1797)"/>
<rect x="74.5" y="74.5" width="251" height="139" rx="7.5" fill="url(#paint1_linear_1187_1797)" stroke="url(#paint2_linear_1187_1797)" stroke-width="15"/>
<path d="M199.782 167.031H183.116L173.099 150.455C172.35 149.197 171.631 148.074 170.943 147.085C170.254 146.097 169.55 145.259 168.831 144.57C168.142 143.851 167.409 143.312 166.63 142.953C165.881 142.563 165.058 142.369 164.159 142.369H160.251V167.031H145.741V102.613H168.741C184.374 102.613 192.191 108.453 192.191 120.132C192.191 122.378 191.846 124.46 191.157 126.376C190.469 128.263 189.495 129.97 188.237 131.498C186.98 133.025 185.452 134.343 183.655 135.451C181.888 136.559 179.912 137.427 177.726 138.056V138.236C178.684 138.535 179.612 139.029 180.511 139.718C181.409 140.377 182.278 141.156 183.116 142.054C183.955 142.953 184.748 143.926 185.497 144.974C186.276 145.992 186.98 146.996 187.609 147.984L199.782 167.031ZM160.251 113.484V131.408H166.54C169.655 131.408 172.155 130.509 174.042 128.712C175.959 126.886 176.917 124.625 176.917 121.929C176.917 116.299 173.548 113.484 166.81 113.484H160.251ZM218.829 161.685H218.65V188.189H204.454V121.031H218.65V127.949H218.829C222.333 122.588 227.26 119.908 233.609 119.908C239.568 119.908 244.165 121.959 247.4 126.062C250.664 130.135 252.296 135.69 252.296 142.728C252.296 150.395 250.394 156.549 246.591 161.191C242.818 165.833 237.786 168.154 231.497 168.154C225.957 168.154 221.734 165.998 218.829 161.685ZM218.425 142.818V146.501C218.425 149.676 219.263 152.266 220.941 154.273C222.618 156.279 224.819 157.283 227.544 157.283C230.778 157.283 233.279 156.04 235.046 153.554C236.843 151.039 237.741 147.49 237.741 142.908C237.741 134.822 234.597 130.779 228.308 130.779C225.403 130.779 223.022 131.887 221.165 134.103C219.338 136.289 218.425 139.194 218.425 142.818Z" fill="url(#paint3_linear_1187_1797)"/>
<circle cx="38.5" cy="38.5" r="38.5" fill="url(#paint4_linear_1187_1797)"/>
<line x1="39.4" y1="21" x2="39.4" y2="52" stroke="white" stroke-width="6"/>
<line x1="55" y1="36.3999" x2="24" y2="36.3999" stroke="white" stroke-width="6"/>
<line x1="55" y1="59.96" x2="24" y2="59.96" stroke="white" stroke-width="6"/>
<defs>
<linearGradient id="paint0_linear_1187_1797" x1="375.933" y1="9.38465" x2="246.7" y2="330.443" gradientUnits="userSpaceOnUse">
<stop offset="0.445079" stop-color="#2C5593"/>
<stop offset="0.730688" stop-color="#2E89FF"/>
<stop offset="0.925083" stop-color="#67E6D4"/>
</linearGradient>
<linearGradient id="paint1_linear_1187_1797" x1="166.75" y1="259.5" x2="384.157" y2="-45.6116" gradientUnits="userSpaceOnUse">
<stop stop-color="#298A97"/>
<stop offset="0.410212" stop-color="#67E6D4"/>
</linearGradient>
<linearGradient id="paint2_linear_1187_1797" x1="403.933" y1="37.3847" x2="274.7" y2="358.443" gradientUnits="userSpaceOnUse">
<stop offset="0.445079" stop-color="#2C5593"/>
<stop offset="0.730688" stop-color="#2E89FF"/>
<stop offset="0.925083" stop-color="#67E6D4"/>
</linearGradient>
<linearGradient id="paint3_linear_1187_1797" x1="292.534" y1="43.767" x2="147.545" y2="244.923" gradientUnits="userSpaceOnUse">
<stop offset="0.445079" stop-color="#2C5593"/>
<stop offset="0.730688" stop-color="#2E89FF"/>
<stop offset="0.925083" stop-color="#67E6D4"/>
</linearGradient>
<linearGradient id="paint4_linear_1187_1797" x1="97.5333" y1="-14.8077" x2="10.1027" y2="110.944" gradientUnits="userSpaceOnUse">
<stop offset="0.445079" stop-color="#2C5593"/>
<stop offset="0.730688" stop-color="#2E89FF"/>
<stop offset="0.925083" stop-color="#67E6D4"/>
</linearGradient>
</defs>
</svg>
