<svg width="264" height="163" viewBox="0 0 264 163" fill="none" xmlns="http://www.w3.org/2000/svg">
<mask id="path-1-inside-1_1182_1696" fill="white">
<path d="M0 15C0 6.71575 6.71573 0 15 0H223.231C231.515 0 238.231 6.71573 238.231 15V122.923C238.231 131.207 231.515 137.923 223.231 137.923H15C6.71571 137.923 0 131.207 0 122.923V15Z"/>
</mask>
<path d="M-15 15C-15 -1.56854 -1.56854 -15 15 -15H208.231C224.799 -15 238.231 -1.56854 238.231 15C238.231 15 231.515 15 223.231 15H15H-15ZM238.231 137.923H0H238.231ZM15 137.923C-1.56854 137.923 -15 124.492 -15 107.923V15C-15 -1.56854 -1.56854 -15 15 -15V15V122.923C15 131.207 15 137.923 15 137.923ZM238.231 0V137.923V0Z" fill="url(#paint0_linear_1182_1696)" mask="url(#path-1-inside-1_1182_1696)"/>
<rect x="32.5781" y="32.5771" width="223.231" height="122.923" rx="7.5" fill="url(#paint1_linear_1182_1696)" stroke="url(#paint2_linear_1182_1696)" stroke-width="15"/>
<path d="M145.736 118H130.338L121.083 102.685C120.391 101.523 119.727 100.485 119.09 99.5723C118.454 98.6592 117.804 97.8844 117.14 97.248C116.503 96.584 115.825 96.0859 115.106 95.7539C114.414 95.3942 113.653 95.2144 112.823 95.2144H109.212V118H95.8066V58.4834H117.057C131.5 58.4834 138.722 63.8789 138.722 74.6699C138.722 76.7451 138.403 78.6681 137.767 80.439C137.131 82.1821 136.231 83.7593 135.069 85.1704C133.907 86.5815 132.496 87.799 130.836 88.8228C129.203 89.8465 127.377 90.6489 125.357 91.23V91.396C126.243 91.6727 127.101 92.1292 127.931 92.7656C128.761 93.3743 129.563 94.0938 130.338 94.9238C131.113 95.7539 131.846 96.6532 132.538 97.6216C133.257 98.5623 133.907 99.4893 134.488 100.402L145.736 118ZM109.212 68.5273V85.0874H115.023C117.901 85.0874 120.211 84.2573 121.954 82.5972C123.725 80.9093 124.61 78.8203 124.61 76.3301C124.61 71.1283 121.498 68.5273 115.272 68.5273H109.212ZM163.333 113.061H163.167V137.548H150.052V75.5H163.167V81.8916H163.333C166.571 76.9388 171.122 74.4624 176.988 74.4624C182.494 74.4624 186.742 76.3577 189.73 80.1484C192.746 83.9115 194.254 89.0441 194.254 95.5464C194.254 102.63 192.497 108.316 188.983 112.604C185.497 116.893 180.848 119.038 175.038 119.038C169.919 119.038 166.017 117.045 163.333 113.061ZM162.96 95.6294V99.0327C162.96 101.966 163.735 104.359 165.284 106.213C166.834 108.067 168.867 108.994 171.385 108.994C174.374 108.994 176.684 107.845 178.316 105.549C179.977 103.225 180.807 99.9458 180.807 95.7124C180.807 88.2417 177.901 84.5063 172.091 84.5063C169.407 84.5063 167.207 85.5301 165.492 87.5776C163.804 89.5975 162.96 92.2814 162.96 95.6294Z" fill="url(#paint3_linear_1182_1696)"/>
<defs>
<linearGradient id="paint0_linear_1182_1696" x1="301.759" y1="-26.5237" x2="186.017" y2="261.018" gradientUnits="userSpaceOnUse">
<stop offset="0.445079" stop-color="#2C5593"/>
<stop offset="0.730688" stop-color="#2E89FF"/>
<stop offset="0.925083" stop-color="#67E6D4"/>
</linearGradient>
<linearGradient id="paint1_linear_1182_1696" x1="114.415" y1="197.481" x2="309.126" y2="-75.7784" gradientUnits="userSpaceOnUse">
<stop stop-color="#298A97"/>
<stop offset="0.410212" stop-color="#67E6D4"/>
</linearGradient>
<linearGradient id="paint2_linear_1182_1696" x1="326.837" y1="-1.44652" x2="211.095" y2="286.095" gradientUnits="userSpaceOnUse">
<stop offset="0.445079" stop-color="#2C5593"/>
<stop offset="0.730688" stop-color="#2E89FF"/>
<stop offset="0.925083" stop-color="#67E6D4"/>
</linearGradient>
<linearGradient id="paint3_linear_1182_1696" x1="227.067" y1="4.26923" x2="97.2135" y2="184.426" gradientUnits="userSpaceOnUse">
<stop offset="0.445079" stop-color="#2C5593"/>
<stop offset="0.730688" stop-color="#2E89FF"/>
<stop offset="0.925083" stop-color="#67E6D4"/>
</linearGradient>
</defs>
</svg>
