<svg width="24" height="24" viewBox="0 0 24 24" fill="none" xmlns="http://www.w3.org/2000/svg">
<path d="M7.90002 6.82505C7.90002 6.28799 8.10863 5.77292 8.47995 5.39316C8.85127 5.0134 9.3549 4.80005 9.88002 4.80005H15.82C16.3452 4.80005 16.8488 5.0134 17.2201 5.39316C17.5914 5.77292 17.8 6.28799 17.8 6.82505V21L12.85 18.4688L7.90002 21V6.82505Z" fill="url(#paint0_linear_796_2649)"/>
<g filter="url(#filter0_d_796_2649)">
<path d="M6 5.025C6 4.48794 6.20861 3.97287 6.57993 3.59311C6.95125 3.21335 7.45487 3 7.98 3H13.92C14.4451 3 14.9487 3.21335 15.3201 3.59311C15.6914 3.97287 15.9 4.48794 15.9 5.025V19.2L10.95 16.6688L6 19.2V5.025Z" fill="url(#paint1_linear_796_2649)"/>
<path d="M15.4 5.025V18.3827L11.1776 16.2236L10.95 16.1072L10.7224 16.2236L6.5 18.3827V5.025C6.5 4.61696 6.6586 4.22784 6.93743 3.94267C7.2159 3.65787 7.59115 3.5 7.98 3.5H13.92C14.3088 3.5 14.6841 3.65787 14.9626 3.94267L15.3201 3.59311L14.9626 3.94267C15.2414 4.22784 15.4 4.61696 15.4 5.025Z" stroke="url(#paint2_linear_796_2649)"/>
</g>
<defs>
<filter id="filter0_d_796_2649" x="6" y="3" width="13.9" height="20.2" filterUnits="userSpaceOnUse" color-interpolation-filters="sRGB">
<feFlood flood-opacity="0" result="BackgroundImageFix"/>
<feColorMatrix in="SourceAlpha" type="matrix" values="0 0 0 0 0 0 0 0 0 0 0 0 0 0 0 0 0 0 127 0" result="hardAlpha"/>
<feOffset dx="2" dy="2"/>
<feGaussianBlur stdDeviation="1"/>
<feComposite in2="hardAlpha" operator="out"/>
<feColorMatrix type="matrix" values="0 0 0 0 0 0 0 0 0 0 0 0 0 0 0 0 0 0 0.25 0"/>
<feBlend mode="normal" in2="BackgroundImageFix" result="effect1_dropShadow_796_2649"/>
<feBlend mode="normal" in="SourceGraphic" in2="effect1_dropShadow_796_2649" result="shape"/>
</filter>
<linearGradient id="paint0_linear_796_2649" x1="20.44" y1="1.68466" x2="0.979283" y2="18.7899" gradientUnits="userSpaceOnUse">
<stop offset="0.445079" stop-color="#2C5593"/>
<stop offset="0.730688" stop-color="#2E89FF"/>
<stop offset="0.925083" stop-color="#67E6D4"/>
</linearGradient>
<linearGradient id="paint1_linear_796_2649" x1="9.7125" y1="23.25" x2="28.9884" y2="13.679" gradientUnits="userSpaceOnUse">
<stop stop-color="#298A97"/>
<stop offset="0.410212" stop-color="#67E6D4"/>
</linearGradient>
<linearGradient id="paint2_linear_796_2649" x1="18.54" y1="-0.115385" x2="-0.920741" y2="16.9898" gradientUnits="userSpaceOnUse">
<stop offset="0.445079" stop-color="#2C5593"/>
<stop offset="0.730688" stop-color="#2E89FF"/>
<stop offset="0.925083" stop-color="#67E6D4"/>
</linearGradient>
</defs>
</svg>