<svg width="18" height="18" viewBox="0 0 18 18" fill="none" xmlns="http://www.w3.org/2000/svg">
<path fill-rule="evenodd" clip-rule="evenodd" d="M0 9C0 10.1935 0.474106 11.3381 1.31802 12.182C2.16193 13.0259 3.30653 13.5 4.5 13.5H7.875V16.875C7.875 17.1734 7.99353 17.4595 8.20451 17.6705C8.41548 17.8815 8.70163 18 9 18C9.29837 18 9.58452 17.8815 9.79549 17.6705C10.0065 17.4595 10.125 17.1734 10.125 16.875V13.5H13.5C14.6935 13.5 15.8381 13.0259 16.682 12.182C17.5259 11.3381 18 10.1935 18 9C18 7.80653 17.5259 6.66193 16.682 5.81802C15.8381 4.97411 14.6935 4.5 13.5 4.5C13.5 3.30653 13.0259 2.16193 12.182 1.31802C11.3381 0.474106 10.1935 0 9 0C7.80653 0 6.66193 0.474106 5.81802 1.31802C4.97411 2.16193 4.5 3.30653 4.5 4.5C3.30653 4.5 2.16193 4.97411 1.31802 5.81802C0.474106 6.66193 0 7.80653 0 9V9ZM10.125 13.5H7.875V8.34075L6.42037 9.79537C6.2082 10.0003 5.92402 10.1137 5.62905 10.1111C5.33408 10.1086 5.05191 9.99025 4.84333 9.78167C4.63475 9.57309 4.51643 9.29092 4.51387 8.99595C4.5113 8.70098 4.6247 8.4168 4.82963 8.20463L8.20463 4.82963C8.41559 4.61872 8.70169 4.50024 9 4.50024C9.29831 4.50024 9.58441 4.61872 9.79537 4.82963L13.1704 8.20463C13.3753 8.4168 13.4887 8.70098 13.4861 8.99595C13.4836 9.29092 13.3653 9.57309 13.1567 9.78167C12.9481 9.99025 12.6659 10.1086 12.371 10.1111C12.076 10.1137 11.7918 10.0003 11.5796 9.79537L10.125 8.34075V13.5Z" fill="url(#paint0_linear_84_4412)"/>
<defs>
<linearGradient id="paint0_linear_84_4412" x1="22.8" y1="-3.46154" x2="2.36166" y2="25.9349" gradientUnits="userSpaceOnUse">
<stop offset="0.445079" stop-color="#2C5593"/>
<stop offset="0.730688" stop-color="#2E89FF"/>
<stop offset="0.925083" stop-color="#67E6D4"/>
</linearGradient>
</defs>
</svg>
