<svg width="24" height="24" viewBox="0 0 24 24" fill="none" xmlns="http://www.w3.org/2000/svg">
<path d="M10.125 2.25H5.625C5.004 2.25 4.5 2.754 4.5 3.375V20.625C4.5 21.246 5.004 21.75 5.625 21.75H18.375C18.996 21.75 19.5 21.246 19.5 20.625V11.625M10.125 2.25H10.5C12.8869 2.25 15.1761 3.19821 16.864 4.88604C18.5518 6.57387 19.5 8.86305 19.5 11.25V11.625M10.125 2.25C11.0201 2.25 11.8785 2.60558 12.5115 3.23851C13.1444 3.87145 13.5 4.72989 13.5 5.625V7.125C13.5 7.746 14.004 8.25 14.625 8.25H16.125C17.0201 8.25 17.8786 8.60558 18.5115 9.23851C19.1444 9.87145 19.5 10.7299 19.5 11.625M9 15L11.25 17.25L15 12" fill="url(#paint0_linear_8_38)"/>
<path d="M10.125 2.25H5.625C5.004 2.25 4.5 2.754 4.5 3.375V20.625C4.5 21.246 5.004 21.75 5.625 21.75H18.375C18.996 21.75 19.5 21.246 19.5 20.625V11.625M10.125 2.25H10.5C12.8869 2.25 15.1761 3.19821 16.864 4.88604C18.5518 6.57387 19.5 8.86305 19.5 11.25V11.625M10.125 2.25C11.0201 2.25 11.8785 2.60558 12.5115 3.23851C13.1444 3.87145 13.5 4.72989 13.5 5.625V7.125C13.5 7.746 14.004 8.25 14.625 8.25H16.125C17.0201 8.25 17.8786 8.60558 18.5115 9.23851C19.1444 9.87145 19.5 10.7299 19.5 11.625M9 15L11.25 17.25L15 12" stroke="url(#paint1_linear_8_38)" stroke-width="1.5" stroke-linecap="round" stroke-linejoin="round"/>
<path d="M13 3.5L11 2.5H13.5L15.5 3.5L16.5 4.5L17.5 5.5L18.5 7L19 8V9H18.5L17.5 8.5H16H15L14 8C13.8333 7.83333 13.5 7.4 13.5 7C13.5 6.6 13.1667 4.5 13 3.5Z" fill="url(#paint2_linear_8_38)"/>
<path d="M10.5 2.25H10.125C11.0201 2.25 11.8785 2.60558 12.5115 3.23851C13.1444 3.87145 13.5 4.72989 13.5 5.625V7.125C13.5 7.746 14.004 8.25 14.625 8.25H16.125C17.0201 8.25 17.8786 8.60558 18.5115 9.23851C19.1444 9.87145 19.5 10.7299 19.5 11.625V11.25C19.5 8.86305 18.5518 6.57387 16.864 4.88604C15.1761 3.19821 12.8869 2.25 10.5 2.25Z" fill="url(#paint3_linear_8_38)" stroke="url(#paint4_linear_8_38)" stroke-width="1.5" stroke-linecap="round" stroke-linejoin="round"/>
<defs>
<linearGradient id="paint0_linear_8_38" x1="20" y1="-1" x2="-2" y2="33" gradientUnits="userSpaceOnUse">
<stop stop-color="#979EB0"/>
<stop offset="0.2" stop-color="#E4E6EB"/>
<stop offset="0.282767" stop-color="#F3F4F6"/>
<stop offset="0.369792" stop-color="#FDFDFD"/>
<stop offset="0.592114" stop-color="white"/>
<stop offset="0.710913" stop-color="#D6D9E0"/>
<stop offset="1" stop-color="#979EB0"/>
</linearGradient>
<linearGradient id="paint1_linear_8_38" x1="23.5" y1="-1.5" x2="7.90335e-07" y2="24.5" gradientUnits="userSpaceOnUse">
<stop offset="0.445079" stop-color="#2C5593"/>
<stop offset="0.730688" stop-color="#2E89FF"/>
<stop offset="0.925083" stop-color="#67E6D4"/>
</linearGradient>
<linearGradient id="paint2_linear_8_38" x1="19" y1="1.90909" x2="13.2579" y2="9.68295" gradientUnits="userSpaceOnUse">
<stop offset="0.469444" stop-color="#D9D9D9"/>
<stop offset="0.781094" stop-color="white"/>
</linearGradient>
<linearGradient id="paint3_linear_8_38" x1="19.8125" y1="0.687499" x2="10.5618" y2="19.2731" gradientUnits="userSpaceOnUse">
<stop stop-color="#979EB0"/>
<stop offset="0.2" stop-color="#E4E6EB"/>
<stop offset="0.282767" stop-color="#F3F4F6"/>
<stop offset="0.369792" stop-color="#FDFDFD"/>
<stop offset="0.592114" stop-color="white"/>
<stop offset="0.710913" stop-color="#D6D9E0"/>
<stop offset="1" stop-color="#979EB0"/>
</linearGradient>
<linearGradient id="paint4_linear_8_38" x1="23.5" y1="-1.5" x2="2.79039e-06" y2="24.5" gradientUnits="userSpaceOnUse">
<stop offset="0.445079" stop-color="#2C5593"/>
<stop offset="0.730688" stop-color="#2E89FF"/>
<stop offset="0.925083" stop-color="#67E6D4"/>
</linearGradient>
</defs>
</svg>
