<svg width="24" height="24" viewBox="0 0 24 24" fill="none" xmlns="http://www.w3.org/2000/svg">
<g clip-path="url(#clip0_677_1471)">
<rect x="1.5" y="8.5" width="14" height="14" rx="1.5" stroke="black"/>
<rect x="5.5" y="4.5" width="14" height="14" rx="1.5" fill="url(#paint0_linear_677_1471)" stroke="black"/>
<g filter="url(#filter0_d_677_1471)">
<line x1="7.5" y1="6.5" x2="17.5" y2="6.5" stroke="black" stroke-linecap="round"/>
</g>
<g filter="url(#filter1_d_677_1471)">
<line x1="7.5" y1="9.5" x2="17.5" y2="9.5" stroke="black" stroke-linecap="round"/>
</g>
<g filter="url(#filter2_d_677_1471)">
<line x1="7.5" y1="13.5" x2="17.5" y2="13.5" stroke="black" stroke-linecap="round"/>
</g>
<g filter="url(#filter3_d_677_1471)">
<line x1="7.5" y1="16.5" x2="12.5" y2="16.5" stroke="black" stroke-linecap="round"/>
</g>
<g filter="url(#filter4_d_677_1471)">
<path d="M23.1273 3.47999L23.1401 2.1617C23.1401 2.16169 23.1401 2.16167 23.1401 2.16166C23.1427 1.89073 23.0376 1.62987 22.8478 1.43643C22.6581 1.243 22.3994 1.13284 22.1285 1.13017C22.1284 1.13017 22.1284 1.13017 22.1284 1.13017M23.1273 3.47999L22.1284 1.13017M23.1273 3.47999L21.0841 3.46015L21.0969 2.14185M23.1273 3.47999L21.0969 2.14185M22.1284 1.13017C21.8575 1.12758 21.5966 1.23269 21.4032 1.4224C21.2098 1.61211 21.0996 1.87089 21.0969 2.14181M22.1284 1.13017L21.0969 2.14181M21.0969 2.14181C21.0969 2.14183 21.0969 2.14184 21.0969 2.14185M21.0969 2.14181L21.0969 2.14185M21.0124 10.8464L21.0744 4.4601L23.1176 4.47994L23.0555 10.8663L23.0555 10.8664C23.0515 11.2891 22.9422 11.7042 22.7375 12.074L22.0094 13.3896L21.3069 12.0601C21.3069 12.0601 21.3069 12.0601 21.3069 12.0601C21.1094 11.6864 21.0082 11.2693 21.0124 10.8466L21.0124 10.8464ZM21.951 13.495C21.951 13.495 21.951 13.495 21.951 13.4949L21.951 13.495Z" stroke="black" shape-rendering="crispEdges"/>
</g>
</g>
<defs>
<filter id="filter0_d_677_1471" x="6.5" y="5.8" width="12" height="2" filterUnits="userSpaceOnUse" color-interpolation-filters="sRGB">
<feFlood flood-opacity="0" result="BackgroundImageFix"/>
<feColorMatrix in="SourceAlpha" type="matrix" values="0 0 0 0 0 0 0 0 0 0 0 0 0 0 0 0 0 0 127 0" result="hardAlpha"/>
<feOffset dy="0.3"/>
<feGaussianBlur stdDeviation="0.25"/>
<feComposite in2="hardAlpha" operator="out"/>
<feColorMatrix type="matrix" values="0 0 0 0 0 0 0 0 0 0 0 0 0 0 0 0 0 0 0.25 0"/>
<feBlend mode="normal" in2="BackgroundImageFix" result="effect1_dropShadow_677_1471"/>
<feBlend mode="normal" in="SourceGraphic" in2="effect1_dropShadow_677_1471" result="shape"/>
</filter>
<filter id="filter1_d_677_1471" x="6.5" y="8.8" width="12" height="2" filterUnits="userSpaceOnUse" color-interpolation-filters="sRGB">
<feFlood flood-opacity="0" result="BackgroundImageFix"/>
<feColorMatrix in="SourceAlpha" type="matrix" values="0 0 0 0 0 0 0 0 0 0 0 0 0 0 0 0 0 0 127 0" result="hardAlpha"/>
<feOffset dy="0.3"/>
<feGaussianBlur stdDeviation="0.25"/>
<feComposite in2="hardAlpha" operator="out"/>
<feColorMatrix type="matrix" values="0 0 0 0 0 0 0 0 0 0 0 0 0 0 0 0 0 0 0.25 0"/>
<feBlend mode="normal" in2="BackgroundImageFix" result="effect1_dropShadow_677_1471"/>
<feBlend mode="normal" in="SourceGraphic" in2="effect1_dropShadow_677_1471" result="shape"/>
</filter>
<filter id="filter2_d_677_1471" x="6.5" y="12.8" width="12" height="2" filterUnits="userSpaceOnUse" color-interpolation-filters="sRGB">
<feFlood flood-opacity="0" result="BackgroundImageFix"/>
<feColorMatrix in="SourceAlpha" type="matrix" values="0 0 0 0 0 0 0 0 0 0 0 0 0 0 0 0 0 0 127 0" result="hardAlpha"/>
<feOffset dy="0.3"/>
<feGaussianBlur stdDeviation="0.25"/>
<feComposite in2="hardAlpha" operator="out"/>
<feColorMatrix type="matrix" values="0 0 0 0 0 0 0 0 0 0 0 0 0 0 0 0 0 0 0.25 0"/>
<feBlend mode="normal" in2="BackgroundImageFix" result="effect1_dropShadow_677_1471"/>
<feBlend mode="normal" in="SourceGraphic" in2="effect1_dropShadow_677_1471" result="shape"/>
</filter>
<filter id="filter3_d_677_1471" x="6.5" y="15.8" width="7" height="2" filterUnits="userSpaceOnUse" color-interpolation-filters="sRGB">
<feFlood flood-opacity="0" result="BackgroundImageFix"/>
<feColorMatrix in="SourceAlpha" type="matrix" values="0 0 0 0 0 0 0 0 0 0 0 0 0 0 0 0 0 0 127 0" result="hardAlpha"/>
<feOffset dy="0.3"/>
<feGaussianBlur stdDeviation="0.25"/>
<feComposite in2="hardAlpha" operator="out"/>
<feColorMatrix type="matrix" values="0 0 0 0 0 0 0 0 0 0 0 0 0 0 0 0 0 0 0.25 0"/>
<feBlend mode="normal" in2="BackgroundImageFix" result="effect1_dropShadow_677_1471"/>
<feBlend mode="normal" in="SourceGraphic" in2="effect1_dropShadow_677_1471" result="shape"/>
</filter>
<filter id="filter4_d_677_1471" x="18.5123" y="-0.369873" width="7.12787" height="17.3313" filterUnits="userSpaceOnUse" color-interpolation-filters="sRGB">
<feFlood flood-opacity="0" result="BackgroundImageFix"/>
<feColorMatrix in="SourceAlpha" type="matrix" values="0 0 0 0 0 0 0 0 0 0 0 0 0 0 0 0 0 0 127 0" result="hardAlpha"/>
<feOffset dy="1"/>
<feGaussianBlur stdDeviation="1"/>
<feComposite in2="hardAlpha" operator="out"/>
<feColorMatrix type="matrix" values="0 0 0 0 0 0 0 0 0 0 0 0 0 0 0 0 0 0 0.1 0"/>
<feBlend mode="normal" in2="BackgroundImageFix" result="effect1_dropShadow_677_1471"/>
<feBlend mode="normal" in="SourceGraphic" in2="effect1_dropShadow_677_1471" result="shape"/>
</filter>
<linearGradient id="paint0_linear_677_1471" x1="20.5" y1="1.5" x2="5.6988" y2="31.237" gradientUnits="userSpaceOnUse">
<stop stop-color="#979EB0"/>
<stop offset="0.2" stop-color="#E4E6EB"/>
<stop offset="0.282767" stop-color="#F3F4F6"/>
<stop offset="0.369792" stop-color="#FDFDFD"/>
<stop offset="0.592114" stop-color="white"/>
<stop offset="0.710913" stop-color="#D6D9E0"/>
<stop offset="1" stop-color="#979EB0"/>
</linearGradient>
<clipPath id="clip0_677_1471">
<rect width="24" height="24" fill="white"/>
</clipPath>
</defs>
</svg>
