<svg width="25" height="24" viewBox="0 0 25 24" fill="none" xmlns="http://www.w3.org/2000/svg">
<path d="M4 4.94444C4 4.69396 4.0995 4.45374 4.27662 4.27662C4.45374 4.0995 4.69396 4 4.94444 4H20.0556C20.306 4 20.5463 4.0995 20.7234 4.27662C20.9005 4.45374 21 4.69396 21 4.94444V7.38678C20.9999 7.63724 20.9004 7.87742 20.7233 8.0545L14.6656 14.1122C14.4885 14.2892 14.3889 14.5294 14.3889 14.7799V17.2222L10.6111 21V14.7799C10.6111 14.5294 10.5115 14.2892 10.3344 14.1122L4.27672 8.0545C4.09959 7.87742 4.00005 7.63724 4 7.38678V4.94444Z" stroke="currentColor" stroke-width="2" stroke-linecap="round" stroke-linejoin="round"/>
</svg>
