<svg xmlns="http://www.w3.org/2000/svg" width="48" height="48" fill="none" viewBox="0 0 48 48">
  <circle cx="24" cy="24" r="24" fill="url(#a)"/>
  <path fill="url(#b)" d="M27.15 15.624c-.247.493-.617.826-1.11.999-.518.173-1.307.259-2.368.259-1.085 0-1.862-.234-2.331-.703-.493-.469-.74-1.209-.74-2.22v-.592c0-.592.025-1.036.074-1.332.025-.271.136-.604.333-.999.395-.715 1.344-1.073 2.849-1.073 1.48 0 2.467.234 2.96.703.469.493.703 1.43.703 2.812 0 .962-.123 1.677-.37 2.146Zm-4.958 4.329c.469-.123 1.098-.185 1.887-.185.79 0 1.418.062 1.887.185.469.123.802.345.999.666.173.32.284.604.333.851.025.247.037.629.037 1.147v11.729c0 .518-.012.9-.037 1.147-.05.271-.173.567-.37.888-.197.32-.53.543-.999.666-.469.148-1.098.222-1.887.222-.79 0-1.418-.074-1.887-.222-.469-.123-.79-.358-.962-.703-.197-.32-.308-.617-.333-.888-.05-.247-.074-.629-.074-1.147V22.58c0-.518.025-.9.074-1.147.025-.247.136-.53.333-.851.197-.296.53-.506.999-.629Z"/>
  <defs>
    <linearGradient id="a" x1="-4" x2="45.5" y1="2.5" y2="39" gradientUnits="userSpaceOnUse">
      <stop stop-color="#87BDFC"/>
      <stop offset=".646" stop-color="#197BEF"/>
      <stop offset="1" stop-color="#095DC0"/>
    </linearGradient>
    <linearGradient id="b" x1="18.667" x2="60.104" y1="53.5" y2="35" gradientUnits="userSpaceOnUse">
      <stop stop-color="#979EB0"/>
      <stop offset=".2" stop-color="#E4E6EB"/>
      <stop offset=".283" stop-color="#F3F4F6"/>
      <stop offset=".37" stop-color="#FDFDFD"/>
      <stop offset=".592" stop-color="#fff"/>
      <stop offset=".711" stop-color="#D6D9E0"/>
      <stop offset="1" stop-color="#979EB0"/>
    </linearGradient>
  </defs>
</svg>
