<svg width="24" height="24" viewBox="0 0 24 24" fill="none" xmlns="http://www.w3.org/2000/svg">
<path d="M21.752 15.002C20.5633 15.4975 19.2879 15.7517 18 15.75C12.615 15.75 8.25 11.385 8.25 6C8.25 4.67 8.516 3.403 8.998 2.248C7.22147 2.98911 5.70397 4.23935 4.63663 5.84126C3.56928 7.44316 2.99984 9.32508 3 11.25C3 16.635 7.365 21 12.75 21C14.6749 21.0002 16.5568 20.4307 18.1587 19.3634C19.7606 18.296 21.0109 16.7785 21.752 15.002Z" fill="#2E89FF" fill-opacity="0.1"/>
<path d="M18.75 8.5L19.009 7.465C19.1573 6.87147 19.4642 6.32941 19.8968 5.89681C20.3294 5.46421 20.8715 5.15733 21.465 5.009L22.5 4.75L21.465 4.491C20.8715 4.34267 20.3294 4.03579 19.8968 3.60319C19.4642 3.17059 19.1573 2.62854 19.009 2.035L18.75 1L18.491 2.035C18.3427 2.62841 18.036 3.17038 17.6036 3.60297C17.1712 4.03556 16.6294 4.34251 16.036 4.491L15 4.75L16.036 5.009C16.6294 5.15749 17.1712 5.46444 17.6036 5.89703C18.036 6.32962 18.3427 6.87159 18.491 7.465L18.75 8.5Z" fill="#2E89FF" fill-opacity="0.1"/>
<path d="M21.752 15.002C20.5633 15.4975 19.2879 15.7517 18 15.75C12.615 15.75 8.25 11.385 8.25 6C8.25 4.67 8.516 3.403 8.998 2.248C7.22147 2.98911 5.70397 4.23935 4.63663 5.84126C3.56928 7.44316 2.99984 9.32508 3 11.25C3 16.635 7.365 21 12.75 21C14.6749 21.0002 16.5568 20.4307 18.1587 19.3634C19.7606 18.296 21.0109 16.7785 21.752 15.002Z" stroke="#2E89FF" stroke-width="2" stroke-linecap="round" stroke-linejoin="round"/>
<path d="M18.75 8.5L19.009 7.465C19.1573 6.87147 19.4642 6.32941 19.8968 5.89681C20.3294 5.46421 20.8715 5.15733 21.465 5.009L22.5 4.75L21.465 4.491C20.8715 4.34267 20.3294 4.03579 19.8968 3.60319C19.4642 3.17059 19.1573 2.62854 19.009 2.035L18.75 1L18.491 2.035C18.3427 2.62841 18.036 3.17038 17.6036 3.60297C17.1712 4.03556 16.6294 4.34251 16.036 4.491L15 4.75L16.036 5.009C16.6294 5.15749 17.1712 5.46444 17.6036 5.89703C18.036 6.32962 18.3427 6.87159 18.491 7.465L18.75 8.5Z" stroke="#2E89FF" stroke-width="2" stroke-linecap="round" stroke-linejoin="round"/>
</svg>
