<svg width="22" height="29" viewBox="0 0 22 29" fill="none" xmlns="http://www.w3.org/2000/svg">
<rect x="4.5" y="4.5" width="15" height="18" rx="1.5" stroke="#252525"/>
<rect x="6.5" y="6.5" width="15" height="18" rx="1.5" fill="url(#paint0_linear_1187_1820)" stroke="#252525"/>
<path d="M14.4032 28.0383L15.2018 23.3732C15.2182 23.2771 15.3015 23.2069 15.3989 23.2069H19.671C19.766 23.2069 19.8478 23.2737 19.8669 23.3667L20.8242 28.0271C20.8558 28.1807 20.7063 28.3092 20.5592 28.255L17.6899 27.1979C17.6452 27.1815 17.5962 27.1815 17.5516 27.1979L14.6695 28.2597C14.5251 28.3129 14.3773 28.19 14.4032 28.0383Z" fill="#252525" stroke="#252525" stroke-linecap="round"/>
<circle cx="17.6207" cy="20.6207" r="3.62069" fill="#252525"/>
<g filter="url(#filter0_d_1187_1820)">
<line x1="9.5" y1="9.5" x2="18.5" y2="9.5" stroke="black" stroke-linecap="round"/>
</g>
<g filter="url(#filter1_d_1187_1820)">
<line x1="9.5" y1="11.5" x2="18.5" y2="11.5" stroke="#252525" stroke-linecap="round"/>
</g>
<g filter="url(#filter2_d_1187_1820)">
<line x1="9.5" y1="13.5" x2="18.5" y2="13.5" stroke="#252525" stroke-linecap="round"/>
</g>
<g filter="url(#filter3_d_1187_1820)">
<line x1="9.5" y1="15.5" x2="14.5" y2="15.5" stroke="#252525" stroke-linecap="round"/>
</g>
<circle cx="3.5" cy="3.5" r="3" fill="url(#paint1_linear_1187_1820)" stroke="#252525"/>
<path d="M2 2.00035V2.93774H2.10912M4.98837 3.3127C4.94691 2.98327 4.7973 2.67692 4.56301 2.44163C4.32871 2.20635 4.02296 2.05545 3.69368 2.01256C3.3644 1.96968 3.0302 2.03725 2.74344 2.20468C2.45669 2.3721 2.2336 2.62993 2.10912 2.93774M2.10912 2.93774H2.9375M5 5V4.06261H4.89106M4.89106 4.06261C4.76641 4.37024 4.54326 4.62787 4.25653 4.79514C3.96981 4.96242 3.6357 5.02991 3.30652 4.98704C2.97734 4.94418 2.67166 4.79338 2.43735 4.55825C2.20304 4.32313 2.05332 4.01695 2.01162 3.68765M4.89106 4.06261H4.0625" stroke="#252525" stroke-width="0.5" stroke-linecap="round" stroke-linejoin="round"/>
<defs>
<filter id="filter0_d_1187_1820" x="8" y="9" width="12" height="3" filterUnits="userSpaceOnUse" color-interpolation-filters="sRGB">
<feFlood flood-opacity="0" result="BackgroundImageFix"/>
<feColorMatrix in="SourceAlpha" type="matrix" values="0 0 0 0 0 0 0 0 0 0 0 0 0 0 0 0 0 0 127 0" result="hardAlpha"/>
<feOffset dy="1"/>
<feGaussianBlur stdDeviation="0.5"/>
<feComposite in2="hardAlpha" operator="out"/>
<feColorMatrix type="matrix" values="0 0 0 0 0 0 0 0 0 0 0 0 0 0 0 0 0 0 0.25 0"/>
<feBlend mode="normal" in2="BackgroundImageFix" result="effect1_dropShadow_1187_1820"/>
<feBlend mode="normal" in="SourceGraphic" in2="effect1_dropShadow_1187_1820" result="shape"/>
</filter>
<filter id="filter1_d_1187_1820" x="8" y="11" width="12" height="3" filterUnits="userSpaceOnUse" color-interpolation-filters="sRGB">
<feFlood flood-opacity="0" result="BackgroundImageFix"/>
<feColorMatrix in="SourceAlpha" type="matrix" values="0 0 0 0 0 0 0 0 0 0 0 0 0 0 0 0 0 0 127 0" result="hardAlpha"/>
<feOffset dy="1"/>
<feGaussianBlur stdDeviation="0.5"/>
<feComposite in2="hardAlpha" operator="out"/>
<feColorMatrix type="matrix" values="0 0 0 0 0 0 0 0 0 0 0 0 0 0 0 0 0 0 0.25 0"/>
<feBlend mode="normal" in2="BackgroundImageFix" result="effect1_dropShadow_1187_1820"/>
<feBlend mode="normal" in="SourceGraphic" in2="effect1_dropShadow_1187_1820" result="shape"/>
</filter>
<filter id="filter2_d_1187_1820" x="8" y="13" width="12" height="3" filterUnits="userSpaceOnUse" color-interpolation-filters="sRGB">
<feFlood flood-opacity="0" result="BackgroundImageFix"/>
<feColorMatrix in="SourceAlpha" type="matrix" values="0 0 0 0 0 0 0 0 0 0 0 0 0 0 0 0 0 0 127 0" result="hardAlpha"/>
<feOffset dy="1"/>
<feGaussianBlur stdDeviation="0.5"/>
<feComposite in2="hardAlpha" operator="out"/>
<feColorMatrix type="matrix" values="0 0 0 0 0 0 0 0 0 0 0 0 0 0 0 0 0 0 0.25 0"/>
<feBlend mode="normal" in2="BackgroundImageFix" result="effect1_dropShadow_1187_1820"/>
<feBlend mode="normal" in="SourceGraphic" in2="effect1_dropShadow_1187_1820" result="shape"/>
</filter>
<filter id="filter3_d_1187_1820" x="8" y="15" width="8" height="3" filterUnits="userSpaceOnUse" color-interpolation-filters="sRGB">
<feFlood flood-opacity="0" result="BackgroundImageFix"/>
<feColorMatrix in="SourceAlpha" type="matrix" values="0 0 0 0 0 0 0 0 0 0 0 0 0 0 0 0 0 0 127 0" result="hardAlpha"/>
<feOffset dy="1"/>
<feGaussianBlur stdDeviation="0.5"/>
<feComposite in2="hardAlpha" operator="out"/>
<feColorMatrix type="matrix" values="0 0 0 0 0 0 0 0 0 0 0 0 0 0 0 0 0 0 0.25 0"/>
<feBlend mode="normal" in2="BackgroundImageFix" result="effect1_dropShadow_1187_1820"/>
<feBlend mode="normal" in="SourceGraphic" in2="effect1_dropShadow_1187_1820" result="shape"/>
</filter>
<linearGradient id="paint0_linear_1187_1820" x1="22.5333" y1="2.83333" x2="1.94641" y2="37.6637" gradientUnits="userSpaceOnUse">
<stop stop-color="#979EB0"/>
<stop offset="0.2" stop-color="#E4E6EB"/>
<stop offset="0.282767" stop-color="#F3F4F6"/>
<stop offset="0.369792" stop-color="#FDFDFD"/>
<stop offset="0.592114" stop-color="white"/>
<stop offset="0.710913" stop-color="#D6D9E0"/>
<stop offset="1" stop-color="#979EB0"/>
</linearGradient>
<linearGradient id="paint1_linear_1187_1820" x1="7.23333" y1="-1.16667" x2="0.326107" y2="12.7106" gradientUnits="userSpaceOnUse">
<stop stop-color="#979EB0"/>
<stop offset="0.2" stop-color="#E4E6EB"/>
<stop offset="0.282767" stop-color="#F3F4F6"/>
<stop offset="0.369792" stop-color="#FDFDFD"/>
<stop offset="0.592114" stop-color="white"/>
<stop offset="0.710913" stop-color="#D6D9E0"/>
<stop offset="1" stop-color="#979EB0"/>
</linearGradient>
</defs>
</svg>
