<svg width="22" height="29" viewBox="0 0 22 29" fill="none" xmlns="http://www.w3.org/2000/svg">
<mask id="path-1-inside-1_1068_1516" fill="white">
<path d="M4 6C4 4.89543 4.89543 4 6 4H18C19.1046 4 20 4.89543 20 6V21C20 22.1046 19.1046 23 18 23H6C4.89543 23 4 22.1046 4 21V6Z"/>
</mask>
<path d="M3 6C3 4.34315 4.34315 3 6 3H17C18.6569 3 20 4.34315 20 6C20 5.44772 19.1046 5 18 5H6C5.44772 5 5 5.44772 5 6H3ZM20 23H4H20ZM6 23C4.34315 23 3 21.6569 3 20V6C3 4.34315 4.34315 3 6 3V5C5.44772 5 5 5.44772 5 6V21C5 22.1046 5.44772 23 6 23ZM20 4V23V4Z" fill="url(#paint0_linear_1068_1516)" mask="url(#path-1-inside-1_1068_1516)"/>
<rect x="6.5" y="6.5" width="15" height="18" rx="1.5" fill="url(#paint1_linear_1068_1516)" stroke="url(#paint2_linear_1068_1516)"/>
<path d="M14.4032 28.0383L15.2018 23.3732C15.2182 23.2771 15.3015 23.2069 15.3989 23.2069H19.671C19.766 23.2069 19.8478 23.2737 19.8669 23.3667L20.8242 28.0271C20.8558 28.1807 20.7063 28.3092 20.5592 28.255L17.6899 27.1979C17.6452 27.1815 17.5962 27.1815 17.5516 27.1979L14.6695 28.2597C14.5251 28.3129 14.3773 28.19 14.4032 28.0383Z" fill="url(#paint3_linear_1068_1516)" stroke="url(#paint4_linear_1068_1516)" stroke-linecap="round"/>
<circle cx="17.6207" cy="20.6207" r="3.62069" fill="url(#paint5_linear_1068_1516)"/>
<g filter="url(#filter0_d_1068_1516)">
<line x1="9.5" y1="9.5" x2="18.5" y2="9.5" stroke="url(#paint6_linear_1068_1516)" stroke-linecap="round"/>
</g>
<g filter="url(#filter1_d_1068_1516)">
<line x1="9.5" y1="11.5" x2="18.5" y2="11.5" stroke="url(#paint7_linear_1068_1516)" stroke-linecap="round"/>
</g>
<g filter="url(#filter2_d_1068_1516)">
<line x1="9.5" y1="13.5" x2="18.5" y2="13.5" stroke="url(#paint8_linear_1068_1516)" stroke-linecap="round"/>
</g>
<g filter="url(#filter3_d_1068_1516)">
<line x1="9.5" y1="15.5" x2="14.5" y2="15.5" stroke="url(#paint9_linear_1068_1516)" stroke-linecap="round"/>
</g>
<circle cx="3.5" cy="3.5" r="3.5" fill="url(#paint10_linear_1068_1516)"/>
<path d="M2 2.00035V2.93774H2.10912M4.98837 3.3127C4.94691 2.98327 4.7973 2.67692 4.56301 2.44163C4.32871 2.20635 4.02296 2.05545 3.69368 2.01256C3.3644 1.96968 3.0302 2.03725 2.74344 2.20468C2.45669 2.3721 2.2336 2.62993 2.10912 2.93774M2.10912 2.93774H2.9375M5 5V4.06261H4.89106M4.89106 4.06261C4.76641 4.37024 4.54326 4.62787 4.25653 4.79514C3.96981 4.96242 3.6357 5.02991 3.30652 4.98704C2.97734 4.94418 2.67166 4.79338 2.43735 4.55825C2.20304 4.32313 2.05332 4.01695 2.01162 3.68765M4.89106 4.06261H4.0625" stroke="white" stroke-width="0.5" stroke-linecap="round" stroke-linejoin="round"/>
<defs>
<filter id="filter0_d_1068_1516" x="8" y="9" width="12" height="3" filterUnits="userSpaceOnUse" color-interpolation-filters="sRGB">
<feFlood flood-opacity="0" result="BackgroundImageFix"/>
<feColorMatrix in="SourceAlpha" type="matrix" values="0 0 0 0 0 0 0 0 0 0 0 0 0 0 0 0 0 0 127 0" result="hardAlpha"/>
<feOffset dy="1"/>
<feGaussianBlur stdDeviation="0.5"/>
<feComposite in2="hardAlpha" operator="out"/>
<feColorMatrix type="matrix" values="0 0 0 0 0 0 0 0 0 0 0 0 0 0 0 0 0 0 0.25 0"/>
<feBlend mode="normal" in2="BackgroundImageFix" result="effect1_dropShadow_1068_1516"/>
<feBlend mode="normal" in="SourceGraphic" in2="effect1_dropShadow_1068_1516" result="shape"/>
</filter>
<filter id="filter1_d_1068_1516" x="8" y="11" width="12" height="3" filterUnits="userSpaceOnUse" color-interpolation-filters="sRGB">
<feFlood flood-opacity="0" result="BackgroundImageFix"/>
<feColorMatrix in="SourceAlpha" type="matrix" values="0 0 0 0 0 0 0 0 0 0 0 0 0 0 0 0 0 0 127 0" result="hardAlpha"/>
<feOffset dy="1"/>
<feGaussianBlur stdDeviation="0.5"/>
<feComposite in2="hardAlpha" operator="out"/>
<feColorMatrix type="matrix" values="0 0 0 0 0 0 0 0 0 0 0 0 0 0 0 0 0 0 0.25 0"/>
<feBlend mode="normal" in2="BackgroundImageFix" result="effect1_dropShadow_1068_1516"/>
<feBlend mode="normal" in="SourceGraphic" in2="effect1_dropShadow_1068_1516" result="shape"/>
</filter>
<filter id="filter2_d_1068_1516" x="8" y="13" width="12" height="3" filterUnits="userSpaceOnUse" color-interpolation-filters="sRGB">
<feFlood flood-opacity="0" result="BackgroundImageFix"/>
<feColorMatrix in="SourceAlpha" type="matrix" values="0 0 0 0 0 0 0 0 0 0 0 0 0 0 0 0 0 0 127 0" result="hardAlpha"/>
<feOffset dy="1"/>
<feGaussianBlur stdDeviation="0.5"/>
<feComposite in2="hardAlpha" operator="out"/>
<feColorMatrix type="matrix" values="0 0 0 0 0 0 0 0 0 0 0 0 0 0 0 0 0 0 0.25 0"/>
<feBlend mode="normal" in2="BackgroundImageFix" result="effect1_dropShadow_1068_1516"/>
<feBlend mode="normal" in="SourceGraphic" in2="effect1_dropShadow_1068_1516" result="shape"/>
</filter>
<filter id="filter3_d_1068_1516" x="8" y="15" width="8" height="3" filterUnits="userSpaceOnUse" color-interpolation-filters="sRGB">
<feFlood flood-opacity="0" result="BackgroundImageFix"/>
<feColorMatrix in="SourceAlpha" type="matrix" values="0 0 0 0 0 0 0 0 0 0 0 0 0 0 0 0 0 0 127 0" result="hardAlpha"/>
<feOffset dy="1"/>
<feGaussianBlur stdDeviation="0.5"/>
<feComposite in2="hardAlpha" operator="out"/>
<feColorMatrix type="matrix" values="0 0 0 0 0 0 0 0 0 0 0 0 0 0 0 0 0 0 0.25 0"/>
<feBlend mode="normal" in2="BackgroundImageFix" result="effect1_dropShadow_1068_1516"/>
<feBlend mode="normal" in="SourceGraphic" in2="effect1_dropShadow_1068_1516" result="shape"/>
</filter>
<linearGradient id="paint0_linear_1068_1516" x1="24.2667" y1="0.346154" x2="1.66824" y2="27.7173" gradientUnits="userSpaceOnUse">
<stop offset="0.445079" stop-color="#2C5593"/>
<stop offset="0.730688" stop-color="#2E89FF"/>
<stop offset="0.925083" stop-color="#67E6D4"/>
</linearGradient>
<linearGradient id="paint1_linear_1068_1516" x1="22.5333" y1="2.83333" x2="1.94641" y2="37.6637" gradientUnits="userSpaceOnUse">
<stop stop-color="#979EB0"/>
<stop offset="0.2" stop-color="#E4E6EB"/>
<stop offset="0.282767" stop-color="#F3F4F6"/>
<stop offset="0.369792" stop-color="#FDFDFD"/>
<stop offset="0.592114" stop-color="white"/>
<stop offset="0.710913" stop-color="#D6D9E0"/>
<stop offset="1" stop-color="#979EB0"/>
</linearGradient>
<linearGradient id="paint2_linear_1068_1516" x1="26.2667" y1="2.34615" x2="3.66824" y2="29.7173" gradientUnits="userSpaceOnUse">
<stop offset="0.445079" stop-color="#2C5593"/>
<stop offset="0.730688" stop-color="#2E89FF"/>
<stop offset="0.925083" stop-color="#67E6D4"/>
</linearGradient>
<linearGradient id="paint3_linear_1068_1516" x1="16.8017" y1="29.6724" x2="24.524" y2="21.7249" gradientUnits="userSpaceOnUse">
<stop stop-color="#298A97"/>
<stop offset="0.410212" stop-color="#67E6D4"/>
</linearGradient>
<linearGradient id="paint4_linear_1068_1516" x1="16.8017" y1="29.6724" x2="24.524" y2="21.7249" gradientUnits="userSpaceOnUse">
<stop stop-color="#298A97"/>
<stop offset="0.410212" stop-color="#67E6D4"/>
</linearGradient>
<linearGradient id="paint5_linear_1068_1516" x1="16.7155" y1="26.0517" x2="27.3021" y2="17.4501" gradientUnits="userSpaceOnUse">
<stop stop-color="#298A97"/>
<stop offset="0.410212" stop-color="#67E6D4"/>
</linearGradient>
<linearGradient id="paint6_linear_1068_1516" x1="12.75" y1="11.25" x2="13.1122" y2="8.30739" gradientUnits="userSpaceOnUse">
<stop stop-color="#298A97"/>
<stop offset="0.410212" stop-color="#67E6D4"/>
</linearGradient>
<linearGradient id="paint7_linear_1068_1516" x1="12.75" y1="13.25" x2="13.1122" y2="10.3074" gradientUnits="userSpaceOnUse">
<stop stop-color="#298A97"/>
<stop offset="0.410212" stop-color="#67E6D4"/>
</linearGradient>
<linearGradient id="paint8_linear_1068_1516" x1="12.75" y1="15.25" x2="13.1122" y2="12.3074" gradientUnits="userSpaceOnUse">
<stop stop-color="#298A97"/>
<stop offset="0.410212" stop-color="#67E6D4"/>
</linearGradient>
<linearGradient id="paint9_linear_1068_1516" x1="11.25" y1="17.25" x2="11.838" y2="14.3834" gradientUnits="userSpaceOnUse">
<stop stop-color="#298A97"/>
<stop offset="0.410212" stop-color="#67E6D4"/>
</linearGradient>
<linearGradient id="paint10_linear_1068_1516" x1="8.86667" y1="-1.34615" x2="0.918424" y2="10.0858" gradientUnits="userSpaceOnUse">
<stop offset="0.445079" stop-color="#2C5593"/>
<stop offset="0.730688" stop-color="#2E89FF"/>
<stop offset="0.925083" stop-color="#67E6D4"/>
</linearGradient>
</defs>
</svg>
