<svg width="24" height="24" viewBox="0 0 24 24" fill="none" xmlns="http://www.w3.org/2000/svg">
<path d="M15.75 17.25V20.625C15.75 21.246 15.246 21.75 14.625 21.75H4.875C4.57663 21.75 4.29048 21.6315 4.0795 21.4205C3.86853 21.2095 3.75 20.9234 3.75 20.625V7.875C3.75 7.254 4.254 6.75 4.875 6.75H6.75C7.25257 6.74966 7.7543 6.79114 8.25 6.874M15.75 17.25H9.375C9.07663 17.25 8.79048 17.1315 8.5795 16.9205C8.36853 16.7095 8.25 16.4234 8.25 16.125V6.874" fill="url(#paint0_linear_1_3)"/>
<path d="M15.75 17.25H19.125C19.746 17.25 20.25 16.746 20.25 16.125V11.25C20.25 6.79 17.007 3.089 12.75 2.374C12.2543 2.29114 11.7526 2.24966 11.25 2.25H9.375C8.754 2.25 8.25 2.754 8.25 3.375V6.874M15.75 17.25H9.375C9.07663 17.25 8.79048 17.1315 8.5795 16.9205C8.36853 16.7095 8.25 16.4234 8.25 16.125V6.874M20.25 13.5V11.625C20.25 10.7299 19.8944 9.87145 19.2615 9.23852C18.6286 8.60558 17.7701 8.25 16.875 8.25H15.375C15.0766 8.25 14.7905 8.13148 14.5795 7.9205C14.3685 7.70952 14.25 7.42337 14.25 7.125V5.625C14.25 5.18179 14.1627 4.74292 13.9931 4.33345C13.8235 3.92397 13.5749 3.55191 13.2615 3.23852C12.9481 2.92512 12.576 2.67652 12.1666 2.50691C11.7571 2.3373 11.3182 2.25 10.875 2.25H9.75" fill="url(#paint1_linear_1_3)"/>
<path d="M20.25 13.5V11.625C20.25 10.7299 19.8944 9.87145 19.2615 9.23852C18.6286 8.60558 17.7701 8.25 16.875 8.25H15.375C15.0766 8.25 14.7905 8.13148 14.5795 7.9205C14.3685 7.70952 14.25 7.42337 14.25 7.125V5.625C14.25 5.18179 14.1627 4.74292 13.9931 4.33345C13.8235 3.92397 13.5749 3.55191 13.2615 3.23852C12.9481 2.92512 12.576 2.67652 12.1666 2.50691C11.7571 2.3373 11.3182 2.25 10.875 2.25H9.75M15.75 17.25H19.125C19.746 17.25 20.25 16.746 20.25 16.125V11.25C20.25 6.79 17.007 3.089 12.75 2.374C12.2543 2.29114 11.7526 2.24966 11.25 2.25H9.375C8.754 2.25 8.25 2.754 8.25 3.375V6.874V16.125C8.25 16.4234 8.36853 16.7095 8.5795 16.9205C8.79048 17.1315 9.07663 17.25 9.375 17.25H15.75Z" stroke="url(#paint2_linear_1_3)" stroke-width="1.5" stroke-linecap="round" stroke-linejoin="round"/>
<path d="M15 8L14 3L18 5L19 8H15Z" fill="url(#paint3_linear_1_3)"/>
<path d="M20.25 11.25C20.25 6.79 17.007 3.089 12.75 2.374C12.2543 2.29114 11.7526 2.24966 11.25 2.25M20.25 11.625C20.25 10.7299 19.8944 9.87145 19.2615 9.23852C18.6286 8.60558 17.7701 8.25 16.875 8.25H15.375C15.0766 8.25 14.7905 8.13148 14.5795 7.9205C14.3685 7.70952 14.25 7.42337 14.25 7.125V5.625C14.25 5.18179 14.1627 4.74292 13.9931 4.33345C13.8235 3.92397 13.5749 3.55191 13.2615 3.23852C12.9481 2.92512 12.576 2.67652 12.1666 2.50691C11.7571 2.3373 11.3182 2.25 10.875 2.25" stroke="url(#paint4_linear_1_3)" stroke-width="1.5" stroke-linecap="round" stroke-linejoin="round"/>
<defs>
<linearGradient id="paint0_linear_1_3" x1="13" y1="11.5" x2="4" y2="22" gradientUnits="userSpaceOnUse">
<stop offset="0.312462" stop-color="#2C5593"/>
<stop offset="1" stop-color="#2E89FF"/>
</linearGradient>
<linearGradient id="paint1_linear_1_3" x1="3" y1="20.5" x2="22.5" y2="2" gradientUnits="userSpaceOnUse">
<stop offset="0.34641" stop-color="white"/>
<stop offset="0.573929" stop-color="#F9F9F9"/>
<stop offset="0.643132" stop-color="#F5F5F5"/>
<stop offset="0.679333" stop-color="#DEDEDE"/>
<stop offset="0.747264" stop-color="#BEBEBE"/>
</linearGradient>
<linearGradient id="paint2_linear_1_3" x1="4.21674e-07" y1="22.5" x2="22.5" y2="2.5" gradientUnits="userSpaceOnUse">
<stop stop-color="#2E89FF"/>
<stop offset="0.395833" stop-color="#2D69BC"/>
<stop offset="0.604167" stop-color="#2C62AE"/>
<stop offset="1" stop-color="#2C5593"/>
</linearGradient>
<linearGradient id="paint3_linear_1_3" x1="19" y1="4" x2="14.5" y2="8" gradientUnits="userSpaceOnUse">
<stop stop-color="#9D9D9D"/>
<stop offset="0.270833" stop-color="#E6E6E6"/>
<stop offset="0.627066" stop-color="white"/>
</linearGradient>
<linearGradient id="paint4_linear_1_3" x1="-1.38237e-07" y1="22.5" x2="22.5" y2="2.5" gradientUnits="userSpaceOnUse">
<stop stop-color="#2E89FF"/>
<stop offset="0.395833" stop-color="#2D69BC"/>
<stop offset="0.604167" stop-color="#2C62AE"/>
<stop offset="1" stop-color="#2C5593"/>
</linearGradient>
</defs>
</svg>
